HIERARCHY
ROOT hip
{
  OFFSET 71.0277 84.7749 91.6343
  CHANNELS 6 Xposition Yposition Zposition Zrotation Xrotation Yrotation
  JOINT abdomen
  {
    OFFSET 0 20.6881 -0.73152
    CHANNELS 3 Zrotation Xrotation Yrotation
    JOINT chest
    {
      OFFSET 0 11.7043 -0.48768
      CHANNELS 3 Zrotation Xrotation Yrotation
      JOINT neck
      {
        OFFSET 0 22.1894 -2.19456
        CHANNELS 3 Zrotation Xrotation Yrotation
        JOINT head
        {
          OFFSET -0.24384 7.07133 1.2192
          CHANNELS 3 Zrotation Xrotation Yrotation
          JOINT leftEye
          {
            OFFSET 4.14528 8.04674 8.04672
            CHANNELS 3 Zrotation Xrotation Yrotation
            End Site
            {
              OFFSET 1 0 0
            }
          }
          JOINT rightEye
          {
            OFFSET -3.6576 8.04674 8.04672
            CHANNELS 3 Zrotation Xrotation Yrotation
            End Site
            {
              OFFSET 1 0 0
            }
          }
        }
      }
      JOINT rCollar
      {
        OFFSET -2.68224 19.2634 -4.8768
        CHANNELS 3 Zrotation Xrotation Yrotation
        JOINT rShldr
        {
          OFFSET -8.77824 -1.95073 1.46304
          CHANNELS 3 Zrotation Xrotation Yrotation
          JOINT rForeArm
          {
            OFFSET -28.1742 -1.7115 0.48768
            CHANNELS 3 Zrotation Xrotation Yrotation
            JOINT rHand
            {
              OFFSET -22.5879 0.773209 7.07136
              CHANNELS 3 Zrotation Xrotation Yrotation
              JOINT rThumb1
              {
                OFFSET -1.2192 -0.487915 3.41376
                CHANNELS 3 Zrotation Xrotation Yrotation
                JOINT rThumb2
                {
                  OFFSET -3.37035 -0.52449 3.41376
                  CHANNELS 3 Zrotation Xrotation Yrotation
                  End Site
                  {
                    OFFSET -1.78271 -1.18214 1.43049
                  }
                }
              }
              JOINT rIndex1
              {
                OFFSET -7.75947 0.938293 5.60832
                CHANNELS 3 Zrotation Xrotation Yrotation
                JOINT rIndex2
                {
                  OFFSET -2.54057 -0.884171 1.56538
                  CHANNELS 3 Zrotation Xrotation Yrotation
                  End Site
                  {
                    OFFSET -1.62519 -0.234802 1.16502
                  }
                }
              }
              JOINT rMid1
              {
                OFFSET -8.24714 1.18213 3.41376
                CHANNELS 3 Zrotation Xrotation Yrotation
                JOINT rMid2
                {
                  OFFSET -3.10165 -0.590103 1.0647
                  CHANNELS 3 Zrotation Xrotation Yrotation
                  End Site
                  {
                    OFFSET -2.48547 -0.328903 0.83742
                  }
                }
              }
              JOINT rRing1
              {
                OFFSET -8.82822 0.546677 1.51678
                CHANNELS 3 Zrotation Xrotation Yrotation
                JOINT rRing2
                {
                  OFFSET -2.60934 -0.819778 -0.0198488
                  CHANNELS 3 Zrotation Xrotation Yrotation
                  End Site
                  {
                    OFFSET -2.33842 -0.294052 0.168128
                  }
                }
              }
              JOINT rPinky1
              {
                OFFSET -8.27202 -0.0477905 -0.4584
                CHANNELS 3 Zrotation Xrotation Yrotation
                JOINT rPinky2
                {
                  OFFSET -1.82734 -0.647385 -0.700984
                  CHANNELS 3 Zrotation Xrotation Yrotation
                  End Site
                  {
                    OFFSET -1.69225 -0.51767 -0.607171
                  }
                }
              }
            }
          }
        }
      }
      JOINT lCollar
      {
        OFFSET 2.68224 19.2634 -4.8768
        CHANNELS 3 Zrotation Xrotation Yrotation
        JOINT lShldr
        {
          OFFSET 8.77824 -1.95073 1.46304
          CHANNELS 3 Zrotation Xrotation Yrotation
          JOINT lForeArm
          {
            OFFSET 28.1742 -1.7115 0.48768
            CHANNELS 3 Zrotation Xrotation Yrotation
            JOINT lHand
            {
              OFFSET 22.5879 0.773209 7.07136
              CHANNELS 3 Zrotation Xrotation Yrotation
              JOINT lThumb1
              {
                OFFSET 1.2192 -0.487915 3.41376
                CHANNELS 3 Zrotation Xrotation Yrotation
                JOINT lThumb2
                {
                  OFFSET 3.37035 -0.52449 3.41376
                  CHANNELS 3 Zrotation Xrotation Yrotation
                  End Site
                  {
                    OFFSET 1.78271 -1.18214 1.43049
                  }
                }
              }
              JOINT lIndex1
              {
                OFFSET 7.75947 0.938293 5.60832
                CHANNELS 3 Zrotation Xrotation Yrotation
                JOINT lIndex2
                {
                  OFFSET 2.54057 -0.884171 1.56538
                  CHANNELS 3 Zrotation Xrotation Yrotation
                  End Site
                  {
                    OFFSET 1.62519 -0.234802 1.16502
                  }
                }
              }
              JOINT lMid1
              {
                OFFSET 8.24714 1.18213 3.41376
                CHANNELS 3 Zrotation Xrotation Yrotation
                JOINT lMid2
                {
                  OFFSET 3.10165 -0.590103 1.0647
                  CHANNELS 3 Zrotation Xrotation Yrotation
                  End Site
                  {
                    OFFSET 2.48547 -0.328903 0.83742
                  }
                }
              }
              JOINT lRing1
              {
                OFFSET 8.82822 0.546677 1.51678
                CHANNELS 3 Zrotation Xrotation Yrotation
                JOINT lRing2
                {
                  OFFSET 2.60934 -0.819778 -0.0198488
                  CHANNELS 3 Zrotation Xrotation Yrotation
                  End Site
                  {
                    OFFSET 2.33842 -0.294052 0.168128
                  }
                }
              }
              JOINT lPinky1
              {
                OFFSET 8.27202 -0.0477905 -0.4584
                CHANNELS 3 Zrotation Xrotation Yrotation
                JOINT lPinky2
                {
                  OFFSET 1.82734 -0.647385 -0.700984
                  CHANNELS 3 Zrotation Xrotation Yrotation
                  End Site
                  {
                    OFFSET 1.69225 -0.51767 -0.607171
                  }
                }
              }
            }
          }
        }
      }
    }
  }
  JOINT rButtock
  {
    OFFSET -8.77824 4.35084 1.2192
    CHANNELS 3 Zrotation Xrotation Yrotation
    JOINT rThigh
    {
      OFFSET 0 -1.70687 -2.19456
      CHANNELS 3 Zrotation Xrotation Yrotation
      JOINT rShin
      {
        OFFSET 0 -36.8199 0.73152
        CHANNELS 3 Zrotation Xrotation Yrotation
        JOINT rFoot
        {
          OFFSET 0.73152 -45.1104 -5.12064
          CHANNELS 3 Zrotation Xrotation Yrotation
          End Site
          {
            OFFSET -1.1221 -3.69964 12.103
          }
        }
      }
    }
  }
  JOINT lButtock
  {
    OFFSET 8.77824 4.35084 1.2192
    CHANNELS 3 Zrotation Xrotation Yrotation
    JOINT lThigh
    {
      OFFSET 0 -1.70687 -2.19456
      CHANNELS 3 Zrotation Xrotation Yrotation
      JOINT lShin
      {
        OFFSET 0 -36.8199 0.73152
        CHANNELS 3 Zrotation Xrotation Yrotation
        JOINT lFoot
        {
          OFFSET -0.73152 -45.1104 -5.12064
          CHANNELS 3 Zrotation Xrotation Yrotation
          End Site
          {
            OFFSET 1.1221 -3.69964 12.103
          }
        }
      }
    }
  }
}
MOTION
Frames:	4
Frame Time:	0.00833333
89.6777 84.9514 -101.478 0.0624144 -0.000233815 -0.00106233 -0.0821284 -0.000598425 -0.00235246 -0.0226704 -0.000955197 -0.00392734 5.73773e-016 -1.59028e-015 -1.10145e-024 1.74868e-015 3.18055e-015 -3.10601e-018 -0 0 0 -0 0 0 2.47183e-016 3.68839e-018 9.93923e-017 9.11595e-015 1.18028e-016 9.93923e-016 1.06797e-013 -2.5842e-014 0 1.18397e-012 4.86277e-014 -3.18055e-015 2.7986e-012 4.56548e-014 0 4.8257e-012 8.26944e-014 -1.27222e-014 2.80525e-012 4.81059e-014 -9.54166e-015 7.73091 5.47488 0.417314 2.79814e-012 4.59193e-014 0 2.90554 0.965183 0.102902 2.80673e-012 4.59193e-014 -5.56597e-015 10.2786 0.731801 0.0259123 2.79611e-012 4.6118e-014 -3.18055e-015 2.22167 -0.733487 -0.20892 3.49188e-016 4.07664e-018 -9.93923e-017 2.80958e-015 -1.73937e-016 -9.93923e-016 1.0302e-013 3.29983e-014 -1.90833e-014 1.1851e-012 -2.28354e-014 1.59028e-014 2.79624e-012 2.37886e-014 -9.54166e-015 4.83126e-012 3.81667e-014 -3.97569e-015 2.79054e-012 2.50469e-014 3.18055e-015 -7.73091 5.47488 -0.417314 2.79432e-012 2.44505e-014 -3.18055e-015 -2.90554 0.965183 -0.102902 2.78404e-012 2.43511e-014 -3.97569e-015 -10.2786 0.731801 -0.0259123 2.80068e-012 2.42517e-014 -9.54166e-015 -2.22167 -0.733487 0.20892 -2.03217e-016 0 -3.88251e-019 0.419528 -2.96758 -0.037431 -0.00606599 -0.177344 -0.053421 -0.481478 3.14428 0.118509 2.03217e-016 0 3.88251e-019 -0.544759 -3.29623 0.0452322 0.00510388 0.417976 0.0447099 0.482703 2.87763 -0.113277 
83.7108 84.1918 -106.343 2.77019 3.24044 31.357 5.37625 0.439877 -0.845031 1.48503 -1.44378 -0.284741 4.67913 6.71622 1.33667 -7.65146 -12.2071 0.413245 -0 0 0 -0 0 0 4.05821e-014 -6.09668e-014 -1.29571e-014 4.78037 8.60131 15.2312 -10.0194 -6.87946 12.3159 0.119563 -7.68309 -1.04505 8.25575e-010 4.44945e-010 -2.73231e-010 1.42865e-009 7.59898e-010 -4.54786e-010 8.2558e-010 4.44947e-010 -2.73238e-010 7.73091 5.47488 0.417314 8.25574e-010 4.44946e-010 -2.7323e-010 2.90554 0.965183 0.102902 8.25582e-010 4.44946e-010 -2.73233e-010 10.2786 0.731801 0.0259123 8.25571e-010 4.44947e-010 -2.7323e-010 2.22167 -0.733487 -0.20892 4.06586e-014 -6.09572e-014 -1.31854e-014 2.93712 -4.21475 0.351151 8.98828 -5.85904 -11.5861 -0.00849827 -2.04535 0.286794 4.62614e-011 -7.15161e-010 5.31445e-010 7.62532e-011 -1.23972e-009 9.22507e-010 4.62552e-011 -7.1516e-010 5.31457e-010 -7.73091 5.47488 -0.417314 4.62603e-011 -7.15161e-010 5.31452e-010 -2.90554 0.965183 -0.102902 4.62509e-011 -7.15162e-010 5.3145e-010 -10.2786 0.731801 -0.0259123 4.62671e-011 -7.15163e-010 5.31444e-010 -2.22167 -0.733487 0.20892 -2.03217e-016 0 -3.88251e-019 -5.45372 -12.0371 0.141562 -0.0129246 6.1487 0.0264748 -0.518449 2.72934 -1.64521 2.03217e-016 0 3.88251e-019 -5.66738 -2.64624 1.35765 -0.0101845 5.92384 -0.0658051 0.163724 -2.19989 -2.77349 
83.5658 84.2886 -106.438 2.64739 3.33452 64.6425 11.1784 0.921099 -1.72562 3.06765 -2.96901 -0.579149 9.26299 13.7892 2.81367 -15.5274 -25.0879 0.920373 -0 0 0 -0 0 0 8.2403e-014 -1.10631e-013 -3.52563e-014 4.94522 15.6443 32.2998 -17.4337 -13.0898 25.875 -0.0696551 -15.8001 -2.21467 1.72494e-009 9.39179e-010 -5.8268e-010 2.9853e-009 1.60418e-009 -9.70445e-010 1.72495e-009 9.39181e-010 -5.82686e-010 7.73091 5.47488 0.417314 1.72494e-009 9.39181e-010 -5.82679e-010 2.90554 0.965183 0.102902 1.72495e-009 9.39181e-010 -5.82679e-010 10.2786 0.731801 0.0259123 1.72494e-009 9.39183e-010 -5.82674e-010 2.22167 -0.733487 -0.20892 8.24538e-014 -1.10613e-013 -3.55172e-014 6.08737 -8.6849 0.724662 15.9435 -11.2468 -24.1993 0.00482964 -4.20363 0.590663 4.02164e-011 -1.48857e-009 1.1049e-009 6.18738e-011 -2.58038e-009 1.91757e-009 4.02097e-011 -1.48857e-009 1.10491e-009 -7.73091 5.47488 -0.417314 4.02161e-011 -1.48857e-009 1.1049e-009 -2.90554 0.965183 -0.102902 4.02077e-011 -1.48857e-009 1.1049e-009 -10.2786 0.731801 -0.0259123 4.02235e-011 -1.48857e-009 1.10489e-009 -2.22167 -0.733487 0.20892 -2.03217e-016 0 -3.88251e-019 -11.5931 -21.6321 0.333575 -0.0398144 12.8432 0.113231 -0.583169 2.31339 -3.51883 2.03217e-016 0 3.88251e-019 -11.1223 -1.98144 2.7608 -0.00272771 11.7763 -0.186213 -0.684868 -7.56358 -5.5943 
83.4408 84.3538 -106.55 2.74987 -0.770059 93.829 16.3319 1.31968 -2.53098 4.4579 -4.32902 -0.848517 13.0463 20.1033 4.24133 -22.316 -36.6128 1.50963 -0 0 0 -0 0 0 1.21252e-013 -1.82908e-013 -3.90701e-014 1.68422 18.4877 48.3967 -21.5603 -16.7968 38.6038 -0.543478 -23.0172 -3.37607 2.47113e-009 1.33474e-009 -8.19692e-010 4.27628e-009 2.27953e-009 -1.36433e-009 2.47113e-009 1.33475e-009 -8.19696e-010 7.73091 5.47488 0.417314 2.47113e-009 1.33475e-009 -8.1969e-010 2.90554 0.965183 0.102902 2.47113e-009 1.33475e-009 -8.19688e-010 10.2786 0.731801 0.0259123 2.47112e-009 1.33475e-009 -8.19682e-010 2.22167 -0.733487 -0.20892 1.21277e-013 -1.8288e-013 -3.93574e-014 8.96961 -12.6423 1.07671 20.1509 -14.692 -35.92 0.0362321 -6.13544 0.864788 1.33192e-010 -2.14553e-009 1.59435e-009 2.19097e-010 -3.71924e-009 2.76753e-009 1.33185e-010 -2.14553e-009 1.59436e-009 -7.73091 5.47488 -0.417314 1.33192e-010 -2.14553e-009 1.59436e-009 -2.90554 0.965183 -0.102902 1.33185e-010 -2.14554e-009 1.59436e-009 -10.2786 0.731801 -0.0259123 1.332e-010 -2.14554e-009 1.59435e-009 -2.22167 -0.733487 0.20892 -2.03217e-016 0 -3.88251e-019 -17.0077 -30.1752 0.566936 -0.0817228 18.8007 0.196281 -0.669061 1.8951 -5.16953 2.03217e-016 0 3.88251e-019 -16.0019 -1.34522 3.97938 0.0252315 16.9354 -0.298733 -1.90953 -12.2378 -8.27743 
